<svg xmlns="http://www.w3.org/2000/svg" version="1.1" xmlns:xlink="http://www.w3.org/1999/xlink" xmlns:svgjs="http://svgjs.com/svgjs" width="1640" height="650" preserveAspectRatio="none" viewBox="0 0 1640 660"><g mask="url(&quot;#SvgjsMask1047&quot;)" fill="none"><rect width="1640" height="660" x="0" y="0" fill="rgba(40, 40, 43, 1)"></rect><path d="M0,498.617C104.765,518.731,214.456,527.577,313.358,487.595C422.817,443.346,544.668,377.407,579.155,264.491C613.683,151.441,531.114,38.679,483.515,-69.519C447.062,-152.381,394.205,-221.798,335.072,-290.342C275.806,-359.039,221.383,-434.228,138.008,-470.011C48.865,-508.27,-50.245,-513.124,-145.859,-496.75C-249.869,-478.939,-353.003,-444.728,-430.139,-372.718C-511.811,-296.473,-586.865,-196.196,-587.488,-84.468C-588.099,24.982,-498.295,109.81,-433.323,197.892C-380.278,269.805,-317.938,329.54,-244.525,380.488C-168.621,433.165,-90.735,481.197,0,498.617" fill="#1e1e20"></path><path d="M1440 1214.551C1557.525 1180.614 1606.998 1045.137 1703.311 969.721 1787.373 903.898 1901.248 884.461 1967.9850000000001 801.123 2045.6660000000002 704.119 2140.8 583.873 2108.372 463.903 2075.34 341.7 1902.8029999999999 326.248 1814.982 235.07600000000002 1734.05 151.05599999999998 1717.767 14.658000000000015 1617.767-45.41999999999996 1507.196-111.84900000000005 1364.135-154.61699999999996 1243.842-108.05200000000002 1124.252-61.75999999999999 1095.059 91.43099999999998 1011.946 189.089 929.838 285.566 793.454 340.222 758.661 462.038 722.749 587.771 774.334 720.2860000000001 825.905 840.448 878.41 962.7860000000001 942.996 1087.183 1056.689 1156.444 1169.334 1225.067 1313.276 1251.145 1440 1214.551" fill="#323236"></path></g><defs><mask id="SvgjsMask1047"><rect width="1640" height="660" fill="#ffffff"></rect></mask></defs></svg>